# xmcd CD database file
#
# Track frame offsets:
#	150
#	14587
#	36150
#	54437
#	73062
#	93487
#	117762
#	138755
#	158935
#	180182
#	198337
#	222375
#	243665
#	247087
#
# Disc length: 3362 seconds
#
# Revision: 11
# Processed by: cddbd v1.5.2PL0 Copyright (c) Steve Scherf et al.
# Submitted via: CDex 1.70beta2
#
DISCID=c60d200e
DTITLE=Various Artist - Together! -タンポポ・プッチ・ミニ・ゆうこ-
DYEAR=2001
DGENRE=JPop
TTITLE0=ミニモニ。ジャンケンぴょん！ - ミニモニ。
TTITLE1=恋をしちゃいました！ - タンポポ
TTITLE2=BABY！恋に KNOCK OUT！ - プッチモニ
TTITLE3=悔し涙 ぽろり - 中澤ゆうこ
TTITLE4=乙女 パスタに感動 - タンポポ
TTITLE5=青春時代1.2.3！ - プッチモニ
TTITLE6=春夏秋冬だいすっき！ - ミニモニ。
TTITLE7=バイセコー大成功！ - プッチモニ
TTITLE8=上海の風 - 中澤ゆうこ
TTITLE9=ちょこっとLOVE (2001Version) - プッチモニ
TTITLE10=たんぽぽ (2001Version) - タンポポ
TTITLE11=赤い日記帳 (by 中澤 Version) - 中澤ゆうこ
TTITLE12=ミニモニ。ダンシン！ - ミニモニ。
TTITLE13=ミニモニ。の歌 - ミニモニ。
EXTD=YEAR: 2001
EXTT0=
EXTT1=
EXTT2=
EXTT3=
EXTT4=
EXTT5=
EXTT6=
EXTT7=
EXTT8=
EXTT9=
EXTT10=
EXTT11=
EXTT12=
EXTT13=
PLAYORDER=
